# xmcd
#
# Track frame offsets:
#	150
#	15915
#	26404
#	44012
#	58926
#	76800
#	93758
#	109149
#	124734
#	144520
#	156959
#	175749
#	190940
#	204746
#	221472
#	238620
#	256975
#
# Disc length: 3661
#
# Revision: 3
# Processed by: cddbd v1.5.1PL0 Copyright (c) Steve Scherf et al.
# Submitted via: FreeRIP 2.90 
# Normalized: r2:DSETVAR1,TDELIM( - )
#
DISCID=e30e4b11
DTITLE=Various Artist - Promo Only Country Radio 2004 December
DYEAR=2004
DGENRE=Country
TTITLE0=Toby Keith w/ Krystal Keith - Mockingbird
TTITLE1=Joe Nichols - What's A Guy Gotta Do
TTITLE2=Brooks and Dunn - It's Getting Better All The Time
TTITLE3=Travis Tritt w/ John Mellencamp - What Say You
TTITLE4=Terri Clark - I Think The World Needs A Drink
TTITLE5=Rascal Flatts - Bless The Broken Road
TTITLE6=Shania Twain w/ Billy Currington - Party For Two
TTITLE7=Montgomery Gentry - Gone
TTITLE8=Sara Evans - Tonight
TTITLE9=Blue Country - Nothing' But Cowboy Boots
TTITLE10=Martina McBride - God's Will
TTITLE11=Hometown News - If I Could
TTITLE12=Keith Anderson - Pickin' Wildflowers
TTITLE13=Cledus T. Judd - Bake Me A Country Ham
TTITLE14=Trent Willmon - Home Sweet Holiday Inn
TTITLE15=Drew Womack - Hey Daisy
TTITLE16=The Neville Brothers - Ball Of Confusion
EXTD=
EXTT0=
EXTT1=
EXTT2=
EXTT3=
EXTT4=
EXTT5=
EXTT6=
EXTT7=
EXTT8=
EXTT9=
EXTT10=
EXTT11=
EXTT12=
EXTT13=
EXTT14=
EXTT15=
EXTT16=
PLAYORDER=
